<?xml version="1.0" encoding="iso-8859-1"?>
<!-- Generator: Adobe Illustrator 15.1.0, SVG Export Plug-In . SVG Version: 6.00 Build 0)  -->
<!DOCTYPE svg PUBLIC "-//W3C//DTD SVG 1.1//EN" "http://www.w3.org/Graphics/SVG/1.1/DTD/svg11.dtd">
<svg xmlns="http://www.w3.org/2000/svg" xmlns:xlink="http://www.w3.org/1999/xlink" version="1.1" id="Layer_1" x="0px" y="0px" width="512" height="512" viewBox="0 0 128 128" style="enable-background:new 0 0 128 128;" xml:space="preserve">
<g>
	<circle style="fill:#2D4452;" cx="64" cy="64" r="64"/>
	<path style="fill:#233540;" d="M64,128c32.829,0,59.87-24.725,63.557-56.564l-7.841-19.25C118.941,49.765,116.668,48,114,48h1   c0,0-35-9-38-10c-0.24-0.08-0.518-0.146-0.814-0.196c-0.016-0.003-0.029,0.142-0.045,0.139C75.838,37.894,75.512,38,75.166,38   c-0.004,0-0.009,0-0.014,0c-0.709,0-1.493-0.094-2.299,0.104c-3.117,0.764-6.521,3.27-6.83,9.896h-3.082   c-0.021-0.052-0.045-0.104-0.069-0.156c-0.003-0.006-0.007-0.011-0.009-0.018c-0.043-0.104-0.077-0.22-0.121-0.32   c-0.025-0.057-0.051-0.115-0.077-0.172c-0.045-0.112-0.082-0.236-0.13-0.344c-0.025-0.057-0.051-0.114-0.077-0.17   c-0.003-0.006-0.007-0.011-0.01-0.018c-0.042-0.104-0.076-0.22-0.12-0.32c-0.023-0.053-0.047-0.106-0.071-0.159   c-0.046-0.117-0.085-0.245-0.135-0.357c-0.024-0.057-0.052-0.114-0.077-0.171c-0.003-0.007-0.007-0.012-0.01-0.019   c-0.042-0.104,0.005-0.219-0.039-0.318C61.971,45.4,62,45.341,62,45.284v-0.001c0-0.111-0.162-0.234-0.211-0.342   c-0.025-0.057-0.091-0.114-0.117-0.17c-0.003-0.006-0.027-0.012-0.029-0.018c-0.043-0.104-0.3-0.22-0.344-0.32   C61.273,44.375,61,44.317,61,44.26v-0.001c0-0.111,0.131-0.234,0.082-0.342c-0.025-0.057,0.057-0.114,0.029-0.171   c-0.004-0.007,0.046-0.013,0.043-0.02c-0.043-0.103-0.055-0.218-0.1-0.318C61.029,43.352,61,43.292,61,43.236v-0.001   c0-0.111-0.078-0.234-0.125-0.342c-0.025-0.057-0.048-0.114-0.074-0.171c-0.156-0.339-0.324-0.659-0.505-0.958   c-0.028-0.048-0.06-0.095-0.089-0.143c-0.186-0.295-0.38-0.572-0.585-0.828c-0.029-0.037-0.06-0.07-0.089-0.105   c-0.213-0.257-0.434-0.497-0.662-0.715c-0.021-0.021-0.046-0.041-0.068-0.062c-0.24-0.224-0.488-0.431-0.742-0.616   c-0.006-0.004-0.013-0.008-0.019-0.013c-0.256-0.185-0.519-0.349-0.782-0.498c-0.019-0.01-0.037-0.022-0.056-0.033   c-0.259-0.142-0.521-0.265-0.782-0.375c-0.031-0.013-0.063-0.028-0.094-0.041c-0.256-0.104-0.514-0.192-0.77-0.268   c-0.037-0.011-0.074-0.022-0.11-0.033c-0.253-0.072-0.503-0.13-0.751-0.177c-0.039-0.007-0.077-0.015-0.115-0.021   c-0.247-0.044-0.491-0.077-0.73-0.098c-0.035-0.003-0.069-0.006-0.104-0.009c-0.24-0.019-0.478-0.029-0.705-0.028   c-0.026,0-0.054,0.001-0.08,0.001c-0.233,0.003-0.459,0.015-0.675,0.036c-0.016,0.001-0.029,0.003-0.044,0.005   c-0.468,0.049-0.892,0.138-1.242,0.255c-3,1-38,10-38,10h1c-3.3,0-6,2.7-6,6v0.512v0.513V79v1l11.89,30.345   C31.371,121.275,46.896,128,64,128z"/>
	<g>
		<path style="fill:#E6E6E6;" d="M13,48c0,0,35-9,38-10s11,0,11,11c-2,0-3,0-4,0c0-3-1-7-5-7c-4,1-17,6-17,6H13z"/>
		<g>
			<path style="fill:#D9D9D9;" d="M50,42c-4,1-17,6-17,6h3c0,0,10.891-4.188,15.801-5.664C51.279,42.125,50.688,42,50,42z"/>
			<path style="fill:#D9D9D9;" d="M51.604,37.841C55.006,38.45,59,41.227,59,49c0.749,0,1.643,0,3,0     C62,38.672,54.948,37.16,51.604,37.841z"/>
		</g>
		<path style="fill:#E6E6E6;" d="M115,48c0,0-35-9-38-10s-11,0-11,11c2,0,3,0,4,0c0-3,1-7,5-7c4,1,17,6,17,6H115z"/>
		<g>
			<path style="fill:#D9D9D9;" d="M71,42c-3.74,0-4.855,3.497-4.986,6.404C66.008,48.602,66,48.795,66,49c2,0,3,0,4,0     c0-2.349,0.62-5.302,2.807-6.478C72.1,42.301,71.482,42.121,71,42z"/>
			<path style="fill:#D9D9D9;" d="M77,38c-0.992-0.331-2.531-0.439-4.146-0.043C72.902,37.972,72.954,37.985,73,38c3,1,38,10,38,10     h4C115,48,80,39,77,38z"/>
		</g>
		<path style="fill:#F5F5F5;" d="M14,48c-3.3,0-6,2.7-6,6v25c0,3.3,2.7,6,6,6h31.916c3.3,0,7.184-2.427,8.628-5.395    c0,0,3.706-8.605,9.456-8.605s9.456,8.605,9.456,8.605C74.9,82.573,78.784,85,82.084,85H114c3.3,0,6-2.7,6-6V54c0-3.3-2.7-6-6-6    H14z"/>
		<g>
			<path style="fill:#E6E6E6;" d="M61,71c-5.75,0-9.456,8.605-9.456,8.605C50.1,82.573,46.216,85,42.916,85h3     c3.3,0,7.184-2.427,8.628-5.395c0,0,3.073-7.103,7.956-8.389C62.016,71.091,61.52,71,61,71z"/>
			<path style="fill:#E6E6E6;" d="M114,48h-3c3.3,0,6,2.7,6,6v25c0,3.3-2.7,6-6,6h3c3.3,0,6-2.7,6-6V54C120,50.7,117.3,48,114,48z"/>
		</g>
		<path style="fill:#CC584C;" d="M112,53H75c-2.2,0-4,1.8-4,4v10.605c4.921,3.274,7.582,9.127,7.967,10.021l0.16,0.373H112    c2.2,0,4-1.8,4-4v-17C116,54.8,114.2,53,112,53z"/>
		<path style="fill:#2995CC;" d="M49.033,77.627c0.385-0.895,3.046-6.746,7.967-10.021V57c0-2.2-1.8-4-4-4H16c-2.2,0-4,1.8-4,4v17    c0,2.2,1.8,4,4,4h32.873L49.033,77.627z"/>
		<g>
			<polygon style="fill:#52A3CC;" points="26.43,53 12,67.43 12,73.085 32.085,53    "/>
			<path style="fill:#52A3CC;" d="M40.57,53h-2.828L13.581,77.161c0.576,0.442,1.271,0.724,2.03,0.8L40.57,53z"/>
		</g>
		<g>
			<polygon style="fill:#CC827A;" points="103.742,53 79.012,77.73 79.127,78 81.57,78 106.57,53    "/>
			<path style="fill:#CC827A;" d="M92.43,53L74.611,70.816c0.967,1.095,1.774,2.216,2.424,3.233L98.085,53H92.43z"/>
		</g>
	</g>
</g>
</svg>
